<svg width="33" height="33" viewBox="0 0 33 33" fill="none" xmlns="http://www.w3.org/2000/svg">
<path fill-rule="evenodd" clip-rule="evenodd" d="M8.10576 16.2447C7.96475 16.3857 7.96475 16.6143 8.10576 16.7553L11.2709 19.9205C11.4119 20.0615 11.6405 20.0615 11.7816 19.9205L14.9467 16.7553C15.0877 16.6143 15.0877 16.3857 14.9467 16.2447L11.7816 13.0795C11.6405 12.9385 11.4119 12.9385 11.2709 13.0795L8.10576 16.2447ZM11.5262 19.1545L8.87178 16.5L11.5262 13.8456L14.1807 16.5L11.5262 19.1545Z" fill="black"/>
<path fill-rule="evenodd" clip-rule="evenodd" d="M13.0795 11.2709C12.9385 11.4119 12.9385 11.6405 13.0795 11.7816L16.2447 14.9467C16.3857 15.0877 16.6143 15.0877 16.7553 14.9467L19.9205 11.7816C20.0615 11.6405 20.0615 11.4119 19.9205 11.2709L16.7553 8.10576C16.6143 7.96475 16.3857 7.96475 16.2447 8.10576L13.0795 11.2709ZM16.5 14.1807L13.8456 11.5262L16.5 8.87178L19.1545 11.5262L16.5 14.1807Z" fill="black"/>
<path fill-rule="evenodd" clip-rule="evenodd" d="M18.0533 16.7553C17.9123 16.6143 17.9123 16.3857 18.0533 16.2447L21.2184 13.0795C21.3595 12.9385 21.5881 12.9385 21.7291 13.0795L24.8942 16.2447C25.0353 16.3857 25.0353 16.6143 24.8942 16.7553L21.7291 19.9205C21.5881 20.0615 21.3595 20.0615 21.2184 19.9205L18.0533 16.7553ZM18.8193 16.5L21.4738 19.1545L24.1282 16.5L21.4738 13.8456L18.8193 16.5Z" fill="black"/>
<path fill-rule="evenodd" clip-rule="evenodd" d="M13.0795 21.2184C12.9385 21.3595 12.9385 21.5881 13.0795 21.7291L16.2447 24.8942C16.3857 25.0353 16.6143 25.0353 16.7553 24.8942L19.9205 21.7291C20.0615 21.5881 20.0615 21.3595 19.9205 21.2184L16.7553 18.0533C16.6143 17.9123 16.3857 17.9123 16.2447 18.0533L13.0795 21.2184ZM16.5 24.1282L13.8456 21.4738L16.5 18.8193L19.1545 21.4738L16.5 24.1282Z" fill="black"/>
</svg>
