<svg width="95" height="95" viewBox="0 0 95 95" fill="none" xmlns="http://www.w3.org/2000/svg">
<path fill-rule="evenodd" clip-rule="evenodd" d="M1.00766 46.0858C0.226613 46.8669 0.226613 48.1332 1.00766 48.9142L18.538 66.4446C19.3191 67.2256 20.5854 67.2256 21.3664 66.4446L38.8968 48.9142C39.6778 48.1332 39.6778 46.8669 38.8968 46.0858L21.3664 28.5555C20.5854 27.7744 19.3191 27.7744 18.538 28.5555L1.00766 46.0858ZM19.9522 62.202L5.2503 47.5L19.9522 32.7981L34.6542 47.5L19.9522 62.202Z" fill="black"/>
<path fill-rule="evenodd" clip-rule="evenodd" d="M28.5554 18.5381C27.7743 19.3191 27.7743 20.5855 28.5554 21.3665L46.0857 38.8969C46.8668 39.6779 48.1331 39.6779 48.9142 38.8969L66.4445 21.3665C67.2256 20.5855 67.2256 19.3191 66.4445 18.5381L48.9142 1.00772C48.1331 0.226674 46.8668 0.226674 46.0857 1.00772L28.5554 18.5381ZM47.5 34.6542L32.798 19.9523L47.5 5.25037L62.2019 19.9523L47.5 34.6542Z" fill="black"/>
<path fill-rule="evenodd" clip-rule="evenodd" d="M56.1031 48.9142C55.322 48.1332 55.322 46.8669 56.1031 46.0858L73.6334 28.5555C74.4145 27.7744 75.6808 27.7744 76.4618 28.5555L93.9922 46.0858C94.7732 46.8669 94.7732 48.1332 93.9922 48.9142L76.4618 66.4446C75.6808 67.2256 74.4145 67.2256 73.6334 66.4446L56.1031 48.9142ZM60.3457 47.5L75.0476 62.202L89.7496 47.5L75.0476 32.7981L60.3457 47.5Z" fill="black"/>
<path fill-rule="evenodd" clip-rule="evenodd" d="M28.5554 73.6335C27.7743 74.4146 27.7743 75.6809 28.5554 76.462L46.0857 93.9923C46.8668 94.7734 48.1331 94.7734 48.9142 93.9923L66.4445 76.462C67.2256 75.6809 67.2256 74.4146 66.4445 73.6335L48.9142 56.1032C48.1331 55.3221 46.8668 55.3221 46.0857 56.1032L28.5554 73.6335ZM47.5 89.7497L32.798 75.0477L47.5 60.3458L62.2019 75.0477L47.5 89.7497Z" fill="black"/>
</svg>
