<svg width="32" height="32" viewBox="0 0 32 32" fill="none" xmlns="http://www.w3.org/2000/svg">
<path fill-rule="evenodd" clip-rule="evenodd" d="M0.199086 15.5194C-0.066362 15.7848 -0.066362 16.2152 0.199086 16.4806L6.15697 22.4385C6.42242 22.704 6.8528 22.704 7.11824 22.4385L13.0761 16.4806C13.3416 16.2152 13.3416 15.7848 13.0761 15.5194L7.11824 9.56149C6.8528 9.29604 6.42242 9.29604 6.15697 9.56149L0.199086 15.5194ZM6.63761 20.9966L1.64099 16L6.63761 11.0034L11.6342 16L6.63761 20.9966Z" fill="black"/>
<path fill-rule="evenodd" clip-rule="evenodd" d="M9.56149 6.15697C9.29604 6.42242 9.29604 6.8528 9.56149 7.11824L15.5194 13.0761C15.7848 13.3416 16.2152 13.3416 16.4806 13.0761L22.4385 7.11824C22.704 6.8528 22.704 6.42242 22.4385 6.15697L16.4806 0.199086C16.2152 -0.0663621 15.7848 -0.0663618 15.5194 0.199086L9.56149 6.15697ZM16 11.6342L11.0034 6.63761L16 1.641L20.9966 6.63761L16 11.6342Z" fill="black"/>
<path fill-rule="evenodd" clip-rule="evenodd" d="M18.9239 16.4806C18.6584 16.2152 18.6584 15.7848 18.9239 15.5194L24.8818 9.56149C25.1472 9.29604 25.5776 9.29604 25.843 9.56149L31.8009 15.5194C32.0664 15.7848 32.0664 16.2152 31.8009 16.4806L25.843 22.4385C25.5776 22.704 25.1472 22.704 24.8818 22.4385L18.9239 16.4806ZM20.3658 16L25.3624 20.9966L30.359 16L25.3624 11.0034L20.3658 16Z" fill="black"/>
<path fill-rule="evenodd" clip-rule="evenodd" d="M9.56149 24.8818C9.29604 25.1472 9.29604 25.5776 9.56149 25.843L15.5194 31.8009C15.7848 32.0664 16.2152 32.0664 16.4806 31.8009L22.4385 25.843C22.704 25.5776 22.704 25.1472 22.4385 24.8818L16.4806 18.9239C16.2152 18.6584 15.7848 18.6584 15.5194 18.9239L9.56149 24.8818ZM16 30.359L11.0034 25.3624L16 20.3658L20.9966 25.3624L16 30.359Z" fill="black"/>
</svg>
