<svg width="272" height="20" viewBox="0 0 272 20" fill="none" xmlns="http://www.w3.org/2000/svg">
<path d="M259.682 11.1642V17.4627H271.055V19.7015H257.294V0.298507H271.025V2.53731H259.682V8.92537H268.965V11.1642H259.682Z" fill="black"/>
<path d="M244.141 19.7015L237.007 0.298507H239.574L245.753 17.3134H245.037L251.216 0.298507H253.723L246.649 19.7015H244.141Z" fill="black"/>
<path d="M230.431 0.298507H232.82V19.7015H230.431V0.298507Z" fill="black"/>
<path d="M209.932 8.89552H222.231V11.1343H209.932V8.89552ZM222.081 0.298507H224.469V19.7015H222.081V0.298507ZM207.753 0.298507H210.141V19.7015H207.753V0.298507Z" fill="black"/>
<path d="M181.139 19.7015V0.298507H189.706C191.06 0.298507 192.214 0.507463 193.169 0.925374C194.124 1.32338 194.851 1.93035 195.348 2.74627C195.866 3.56219 196.124 4.58706 196.124 5.8209C196.124 6.65672 195.985 7.37314 195.706 7.97015C195.448 8.56717 195.08 9.07463 194.602 9.49254C194.124 9.89055 193.557 10.199 192.9 10.4179C192.264 10.6368 191.567 10.7761 190.811 10.8358L190.721 10.6866C191.776 10.7264 192.682 10.8557 193.438 11.0746C194.194 11.2935 194.781 11.6915 195.199 12.2687C195.617 12.8458 195.826 13.7114 195.826 14.8657V19.7015H193.438V14.8657C193.438 14.0697 193.298 13.4527 193.02 13.0149C192.761 12.5572 192.313 12.2388 191.677 12.0597C191.06 11.8607 190.204 11.7612 189.109 11.7612H183.527V19.7015H181.139ZM183.527 9.52239H189.706C191.06 9.52239 192.065 9.18408 192.721 8.50746C193.398 7.81095 193.736 6.91542 193.736 5.8209C193.736 4.76617 193.398 3.9602 192.721 3.40299C192.065 2.82587 191.06 2.53731 189.706 2.53731H183.527V9.52239Z" fill="black"/>
<path d="M165.002 11.1642V17.4627H176.375V19.7015H162.614V0.298507H176.346V2.53731H165.002V8.92537H174.286V11.1642H165.002Z" fill="black"/>
<path d="M143.665 0.298507H159.187V2.53731H143.665V0.298507ZM150.232 2.29851H152.62V19.7015H150.232V2.29851Z" fill="black"/>
<path d="M138.509 16.8657L137.852 17.0746V0.298507H140.24V19.7015H137.852L125.255 3.16418L125.912 2.95522V19.7015H123.524V0.298507H125.912L138.509 16.8657Z" fill="black"/>
<path d="M107.387 11.1642V17.4627H118.76V19.7015H104.999V0.298507H118.73V2.53731H107.387V8.92537H116.67V11.1642H107.387Z" fill="black"/>
<path d="M100.479 13.2239C100.28 14.6169 99.8019 15.8209 99.0457 16.8358C98.2895 17.8507 97.3243 18.6368 96.1502 19.194C94.996 19.7313 93.7024 20 92.2696 20C90.9363 20 89.7024 19.7711 88.5681 19.3134C87.4338 18.8358 86.4387 18.1592 85.583 17.2836C84.7472 16.408 84.0905 15.3532 83.6129 14.1194C83.1353 12.8856 82.8965 11.5124 82.8965 10C82.8965 8.46766 83.1353 7.09453 83.6129 5.8806C84.0905 4.64677 84.7472 3.59204 85.583 2.71642C86.4387 1.8408 87.4338 1.17413 88.5681 0.716417C89.7024 0.238805 90.9363 0 92.2696 0C93.7223 0 95.0258 0.278607 96.18 0.835821C97.3542 1.37313 98.3194 2.1592 99.0756 3.19403C99.8318 4.20895 100.309 5.42289 100.508 6.83582H98.2994C98.0208 5.8408 97.583 5.00497 96.986 4.32836C96.4089 3.65174 95.7124 3.13433 94.8965 2.77612C94.0805 2.41791 93.2049 2.23881 92.2696 2.23881C91.0557 2.23881 89.9114 2.53731 88.8368 3.13433C87.782 3.73134 86.9263 4.60696 86.2696 5.76119C85.6129 6.91542 85.2845 8.32836 85.2845 10C85.2845 11.6716 85.6129 13.0846 86.2696 14.2388C86.9263 15.393 87.782 16.2687 88.8368 16.8657C89.9114 17.4627 91.0557 17.7612 92.2696 17.7612C93.2049 17.7612 94.0706 17.592 94.8666 17.2537C95.6825 16.8955 96.3791 16.3781 96.9562 15.7015C97.5532 15.0249 97.991 14.199 98.2696 13.2239H100.479Z" fill="black"/>
<path d="M60.0784 12.8358V10.597H66.1679C67.362 10.597 68.3271 10.2289 69.0635 9.49254C69.8197 8.73632 70.1978 7.76119 70.1978 6.56716C70.1978 5.33333 69.8197 4.35821 69.0635 3.64179C68.3271 2.90547 67.362 2.53731 66.1679 2.53731H60.556V19.7015H58.1679V0.298507H66.1679C67.0635 0.298507 67.8993 0.437811 68.6754 0.716418C69.4515 0.995025 70.1281 1.40298 70.7052 1.9403C71.3023 2.47761 71.76 3.13433 72.0784 3.91045C72.4167 4.68657 72.5858 5.57214 72.5858 6.56716C72.5858 7.56219 72.4167 8.44776 72.0784 9.22388C71.76 10 71.3023 10.6567 70.7052 11.194C70.1281 11.7313 69.4515 12.1393 68.6754 12.4179C67.8993 12.6965 67.0635 12.8358 66.1679 12.8358H60.0784Z" fill="black"/>
<path d="M42.9944 0.298507V17.4627H53.7407V19.7015H40.6063V0.298507H42.9944Z" fill="black"/>
<path d="M24.4695 11.1642V17.4627H35.8426V19.7015H22.0814V0.298507H35.8127V2.53731H24.4695V8.92537H33.753V11.1642H24.4695Z" fill="black"/>
<path d="M2.1791 8.89552H14.4776V11.1343H2.1791V8.89552ZM14.3284 0.298507H16.7164V19.7015H14.3284V0.298507ZM0 0.298507H2.38806V19.7015H0V0.298507Z" fill="black"/>
</svg>
