<svg width="308" height="32" viewBox="0 0 308 32" fill="none" xmlns="http://www.w3.org/2000/svg">
<path d="M292.682 17.1642V23.4627H304.055V25.7015H290.294V6.29851H304.025V8.53731H292.682V14.9254H301.965V17.1642H292.682Z" fill="black"/>
<path d="M277.141 25.7015L270.007 6.29851H272.574L278.753 23.3134H278.037L284.216 6.29851H286.723L279.649 25.7015H277.141Z" fill="black"/>
<path d="M263.431 6.29851H265.82V25.7015H263.431V6.29851Z" fill="black"/>
<path d="M242.932 14.8955H255.231V17.1343H242.932V14.8955ZM255.081 6.29851H257.469V25.7015H255.081V6.29851ZM240.753 6.29851H243.141V25.7015H240.753V6.29851Z" fill="black"/>
<path d="M214.139 25.7015V6.29851H222.706C224.06 6.29851 225.214 6.50746 226.169 6.92537C227.124 7.32338 227.851 7.93035 228.348 8.74627C228.866 9.56219 229.124 10.5871 229.124 11.8209C229.124 12.6567 228.985 13.3731 228.706 13.9702C228.448 14.5672 228.08 15.0746 227.602 15.4925C227.124 15.8905 226.557 16.199 225.9 16.4179C225.264 16.6368 224.567 16.7761 223.811 16.8358L223.721 16.6866C224.776 16.7264 225.682 16.8557 226.438 17.0746C227.194 17.2935 227.781 17.6915 228.199 18.2687C228.617 18.8458 228.826 19.7114 228.826 20.8657V25.7015H226.438V20.8657C226.438 20.0697 226.298 19.4527 226.02 19.0149C225.761 18.5572 225.313 18.2388 224.677 18.0597C224.06 17.8607 223.204 17.7612 222.109 17.7612H216.527V25.7015H214.139ZM216.527 15.5224H222.706C224.06 15.5224 225.065 15.1841 225.721 14.5075C226.398 13.8109 226.736 12.9154 226.736 11.8209C226.736 10.7662 226.398 9.9602 225.721 9.40299C225.065 8.82587 224.06 8.53731 222.706 8.53731H216.527V15.5224Z" fill="black"/>
<path d="M198.002 17.1642V23.4627H209.375V25.7015H195.614V6.29851H209.346V8.53731H198.002V14.9254H207.286V17.1642H198.002Z" fill="black"/>
<path d="M176.665 6.29851H192.187V8.53731H176.665V6.29851ZM183.232 8.29851H185.62V25.7015H183.232V8.29851Z" fill="black"/>
<path d="M171.509 22.8657L170.852 23.0746V6.29851H173.24V25.7015H170.852L158.255 9.16418L158.912 8.95522V25.7015H156.524V6.29851H158.912L171.509 22.8657Z" fill="black"/>
<path d="M140.387 17.1642V23.4627H151.76V25.7015H137.999V6.29851H151.73V8.53731H140.387V14.9254H149.67V17.1642H140.387Z" fill="black"/>
<path d="M133.479 19.2239C133.28 20.6169 132.802 21.8209 132.046 22.8358C131.289 23.8507 130.324 24.6368 129.15 25.194C127.996 25.7313 126.702 26 125.27 26C123.936 26 122.702 25.7711 121.568 25.3134C120.434 24.8358 119.439 24.1592 118.583 23.2836C117.747 22.408 117.09 21.3532 116.613 20.1194C116.135 18.8856 115.896 17.5124 115.896 16C115.896 14.4677 116.135 13.0945 116.613 11.8806C117.09 10.6468 117.747 9.59204 118.583 8.71642C119.439 7.8408 120.434 7.17413 121.568 6.71642C122.702 6.23881 123.936 6 125.27 6C126.722 6 128.026 6.27861 129.18 6.83582C130.354 7.37313 131.319 8.1592 132.076 9.19403C132.832 10.209 133.309 11.4229 133.508 12.8358H131.299C131.021 11.8408 130.583 11.005 129.986 10.3284C129.409 9.65174 128.712 9.13433 127.896 8.77612C127.081 8.41791 126.205 8.23881 125.27 8.23881C124.056 8.23881 122.911 8.53731 121.837 9.13433C120.782 9.73134 119.926 10.607 119.27 11.7612C118.613 12.9154 118.285 14.3284 118.285 16C118.285 17.6716 118.613 19.0846 119.27 20.2388C119.926 21.393 120.782 22.2687 121.837 22.8657C122.911 23.4627 124.056 23.7612 125.27 23.7612C126.205 23.7612 127.071 23.592 127.867 23.2537C128.683 22.8955 129.379 22.3781 129.956 21.7015C130.553 21.0249 130.991 20.199 131.27 19.2239H133.479Z" fill="black"/>
<path d="M93.0784 18.8358V16.597H99.1679C100.362 16.597 101.327 16.2289 102.063 15.4925C102.82 14.7363 103.198 13.7612 103.198 12.5672C103.198 11.3333 102.82 10.3582 102.063 9.64179C101.327 8.90547 100.362 8.53731 99.1679 8.53731H93.556V25.7015H91.1679V6.29851H99.1679C100.063 6.29851 100.899 6.43781 101.675 6.71642C102.452 6.99502 103.128 7.40298 103.705 7.9403C104.302 8.47761 104.76 9.13433 105.078 9.91045C105.417 10.6866 105.586 11.5721 105.586 12.5672C105.586 13.5622 105.417 14.4478 105.078 15.2239C104.76 16 104.302 16.6567 103.705 17.194C103.128 17.7313 102.452 18.1393 101.675 18.4179C100.899 18.6965 100.063 18.8358 99.1679 18.8358H93.0784Z" fill="black"/>
<path d="M75.9944 6.29851V23.4627H86.7407V25.7015H73.6063V6.29851H75.9944Z" fill="black"/>
<path d="M57.4695 17.1642V23.4627H68.8426V25.7015H55.0814V6.29851H68.8127V8.53731H57.4695V14.9254H66.753V17.1642H57.4695Z" fill="black"/>
<path d="M35.1791 14.8955H47.4776V17.1343H35.1791V14.8955ZM47.3284 6.29851H49.7164V25.7015H47.3284V6.29851ZM33 6.29851H35.3881V25.7015H33V6.29851Z" fill="black"/>
<path fill-rule="evenodd" clip-rule="evenodd" d="M5.10576 15.2447C4.96475 15.3857 4.96475 15.6143 5.10576 15.7553L8.27089 18.9205C8.41191 19.0615 8.64055 19.0615 8.78157 18.9205L11.9467 15.7553C12.0877 15.6143 12.0877 15.3857 11.9467 15.2447L8.78157 12.0795C8.64055 11.9385 8.41191 11.9385 8.27089 12.0795L5.10576 15.2447ZM8.52623 18.1545L5.87178 15.5L8.52623 12.8456L11.1807 15.5L8.52623 18.1545Z" fill="black"/>
<path fill-rule="evenodd" clip-rule="evenodd" d="M10.0795 10.2709C9.93852 10.4119 9.93852 10.6405 10.0795 10.7816L13.2447 13.9467C13.3857 14.0877 13.6143 14.0877 13.7553 13.9467L16.9205 10.7816C17.0615 10.6405 17.0615 10.4119 16.9205 10.2709L13.7553 7.10576C13.6143 6.96475 13.3857 6.96475 13.2447 7.10576L10.0795 10.2709ZM13.5 13.1807L10.8456 10.5262L13.5 7.87178L16.1545 10.5262L13.5 13.1807Z" fill="black"/>
<path fill-rule="evenodd" clip-rule="evenodd" d="M15.0533 15.7553C14.9123 15.6143 14.9123 15.3857 15.0533 15.2447L18.2184 12.0795C18.3595 11.9385 18.5881 11.9385 18.7291 12.0795L21.8942 15.2447C22.0353 15.3857 22.0353 15.6143 21.8942 15.7553L18.7291 18.9205C18.5881 19.0615 18.3595 19.0615 18.2184 18.9205L15.0533 15.7553ZM15.8193 15.5L18.4738 18.1545L21.1282 15.5L18.4738 12.8456L15.8193 15.5Z" fill="black"/>
<path fill-rule="evenodd" clip-rule="evenodd" d="M10.0795 20.2184C9.93852 20.3595 9.93852 20.5881 10.0795 20.7291L13.2447 23.8942C13.3857 24.0353 13.6143 24.0353 13.7553 23.8942L16.9205 20.7291C17.0615 20.5881 17.0615 20.3595 16.9205 20.2184L13.7553 17.0533C13.6143 16.9123 13.3857 16.9123 13.2447 17.0533L10.0795 20.2184ZM13.5 23.1282L10.8456 20.4738L13.5 17.8193L16.1545 20.4738L13.5 23.1282Z" fill="black"/>
</svg>
